<?xml version="1.0" encoding="UTF-8"?>
<svg width="385px" height="5px" viewBox="0 0 385 5" version="1.1" xmlns="http://www.w3.org/2000/svg" xmlns:xlink="http://www.w3.org/1999/xlink">
    <title>线</title>
    <g id="3-购物车" stroke="none" stroke-width="1" fill="none" fill-rule="evenodd">
        <g id="3-3-1确认订单-订单列表" transform="translate(5.000000, -208.000000)">
            <g id="线" transform="translate(-5.000000, 208.000000)">
                <polygon id="路径" fill="#46B0B0" points="5.238095 0 22 0 16.7619 5 0 5"></polygon>
                <polygon id="路径" fill="#EC500D" points="38.2381 0 55 0 49.7619 5 33 5"></polygon>
                <polygon id="路径" fill="#46B0B0" points="71.2381 0 88 0 82.7619 5 66 5"></polygon>
                <polygon id="路径" fill="#EC500D" points="104.2381 0 121 0 115.762 5 99 5"></polygon>
                <polygon id="路径" fill="#46B0B0" points="137.238 0 154 0 148.762 5 132 5"></polygon>
                <polygon id="路径" fill="#EC500D" points="170.238 0 187 0 181.762 5 165 5"></polygon>
                <polygon id="路径" fill="#46B0B0" points="203.238 0 220 0 214.762 5 198 5"></polygon>
                <polygon id="路径" fill="#EC500D" points="236.238 0 253 0 247.762 5 231 5"></polygon>
                <polygon id="路径" fill="#46B0B0" points="269.238 0 286 0 280.762 5 264 5"></polygon>
                <polygon id="路径" fill="#EC500D" points="302.238 0 319 0 313.762 5 297 5"></polygon>
                <polygon id="路径" fill="#46B0B0" points="335.238 0 352 0 346.762 5 330 5"></polygon>
                <polygon id="路径" fill="#EC500D" points="368.238 0 385 0 379.762 5 363 5"></polygon>
            </g>
        </g>
    </g>
</svg>