<?xml version="1.0" encoding="UTF-8"?>
<svg width="19px" height="19px" viewBox="0 0 19 19" version="1.1" xmlns="http://www.w3.org/2000/svg" xmlns:xlink="http://www.w3.org/1999/xlink">
    <title>img/more1</title>
    <g id="3-购物车" stroke="none" stroke-width="1" fill="none" fill-rule="evenodd">
        <g id="3-6-5-搜索-搜索结果-图片展示" transform="translate(-337.000000, -141.000000)" stroke="#383838">
            <g id="img/more1" transform="translate(338.000000, 142.000000)">
                <path d="M6.5,10 C6.77614237,10 7,10.2238576 7,10.5 L7,16.5 C7,16.7761424 6.77614237,17 6.5,17 L0.5,17 C0.223857625,17 4.68833933e-16,16.7761424 0,16.5 L0,10.5 C-8.93288388e-17,10.2238576 0.223857625,10 0.5,10 L6.5,10 Z M16.5,10 C16.7761424,10 17,10.2238576 17,10.5 L17,16.5 C17,16.7761424 16.7761424,17 16.5,17 L10.5,17 C10.2238576,17 10,16.7761424 10,16.5 L10,10.5 C10,10.2238576 10.2238576,10 10.5,10 L16.5,10 Z M6.5,0 C6.77614237,3.84289714e-16 7,0.223857625 7,0.5 L7,6.5 C7,6.77614237 6.77614237,7 6.5,7 L0.5,7 C0.223857625,7 4.68833933e-16,6.77614237 0,6.5 L0,0.5 C-8.93288388e-17,0.223857625 0.223857625,-4.7846199e-18 0.5,0 L6.5,0 Z M16.5,0 C16.7761424,3.84289714e-16 17,0.223857625 17,0.5 L17,6.5 C17,6.77614237 16.7761424,7 16.5,7 L10.5,7 C10.2238576,7 10,6.77614237 10,6.5 L10,0.5 C10,0.223857625 10.2238576,-4.7846199e-18 10.5,0 L16.5,0 Z" id="形状结合"></path>
            </g>
        </g>
    </g>
</svg>