<?xml version="1.0" encoding="UTF-8"?>
<svg width="18px" height="19px" viewBox="0 0 18 19" version="1.1" xmlns="http://www.w3.org/2000/svg" xmlns:xlink="http://www.w3.org/1999/xlink">
    <title>形状结合</title>
    <g id="3-购物车" stroke="none" stroke-width="1" fill="none" fill-rule="evenodd">
        <g id="3-6-5-搜索-搜索结果-图片展示" transform="translate(-311.000000, -141.000000)" stroke="#383838">
            <path d="M318.5,152 C318.776142,152 319,152.223858 319,152.5 L319,158.5 C319,158.776142 318.776142,159 318.5,159 L312.5,159 C312.223858,159 312,158.776142 312,158.5 L312,152.5 C312,152.223858 312.223858,152 312.5,152 L318.5,152 Z M318.5,142 C318.776142,142 319,142.223858 319,142.5 L319,148.5 C319,148.776142 318.776142,149 318.5,149 L312.5,149 C312.223858,149 312,148.776142 312,148.5 L312,142.5 C312,142.223858 312.223858,142 312.5,142 L318.5,142 Z M322.5,143.5 L328.5,143.5 M322.5,147.5 L328.5,147.5 M322.5,153.5 L328.5,153.5 M322.5,157.5 L328.5,157.5" id="形状结合"></path>
        </g>
    </g>
</svg>