<?xml version="1.0" encoding="UTF-8"?>
<svg width="24px" height="24px" viewBox="0 0 24 24" version="1.1" xmlns="http://www.w3.org/2000/svg" xmlns:xlink="http://www.w3.org/1999/xlink">
    <title>编组 12</title>
    <g id="3-购物车" stroke="none" stroke-width="1" fill="none" fill-rule="evenodd">
        <g id="3-2-1商品-详情" transform="translate(-299.000000, -710.000000)">
            <g id="编组-12" transform="translate(299.000000, 710.000000)">
                <circle id="椭圆形" fill="#DDDDDD" fill-rule="nonzero" cx="12" cy="12" r="12"></circle>
                <ellipse id="椭圆形" fill="#FFFFFF" fill-rule="nonzero" opacity="0.4" cx="12" cy="19" rx="3" ry="1"></ellipse>
                <path d="M13.148,18.081 C14.889,16.608 18,13.633 18,11.176 C18,7.765 15.314,5 12,5 C8.686,5 6,7.765 6,11.176 C6,13.633 9.111,16.608 10.852,18.081 C11.52,18.646 12.48,18.646 13.148,18.081 Z M12,14 C13.657,14 15,12.657 15,11 C15,9.343 13.657,8 12,8 C10.343,8 9,9.343 9,11 C9,12.657 10.343,14 12,14 Z" id="形状" fill="#FFFFFF"></path>
            </g>
        </g>
    </g>
</svg>