<?xml version="1.0" encoding="UTF-8"?>
<svg width="110px" height="18px" viewBox="0 0 110 18" version="1.1" xmlns="http://www.w3.org/2000/svg" xmlns:xlink="http://www.w3.org/1999/xlink">
    <title>编组 12</title>
    <defs>
        <linearGradient x1="100%" y1="50%" x2="0%" y2="50%" id="linearGradient-1">
            <stop stop-color="#3EB5AE" offset="0%"></stop>
            <stop stop-color="#70CEB6" offset="100%"></stop>
        </linearGradient>
    </defs>
    <g id="3-购物车" stroke="none" stroke-width="1" fill="none" fill-rule="evenodd">
        <g id="3-1-1购物车-ios" transform="translate(-152.000000, -265.000000)">
            <g id="编组-12" transform="translate(152.000000, 265.000000)">
                <rect id="矩形" stroke="#42B7AE" x="0.5" y="0.5" width="109" height="17" rx="4"></rect>
                <path d="M0,4 C0,1.79086 1.79086,0 4,0 L18,0 L18,18 L4,18 C1.79086,18 0,16.2091 0,14 L0,4 Z" id="路径" fill="url(#linearGradient-1)"></path>
                <path d="M7.2348,11.898198 C7.2348,11.898198 12.912,10.145698 13.4704,9.965468 C14.0274,9.785268 15.2974,9.334068 14.9364,8.419288 C14.5934,7.547158 13.1029,8.032748 13.1029,8.032748 L10.9019,8.805838 C10.4261,8.962658 10.1682,8.805838 10.1682,8.805838 C9.66403,8.386278 6.86732,6.101398 6.86732,6.101398 C5.32132,5.732738 5.76745,6.487938 5.76745,6.487938 L7.96847,9.965468 L6.50112,10.353398 C6.2239,10.448298 6.01502,10.455198 5.79066,10.373998 L4.49997,10.946298 C5.66301,12.459398 7.2348,11.898198 7.2348,11.898198 Z M3,9.382428 C3,9.382428 3.08727,9.796398 3.54517,10.499998 L4.5,9.947578 C4.45119,9.902798 4.39352,9.854898 4.33025,9.802348 C4.19386,9.689088 4.03146,9.554218 3.87577,9.382428 C3.09446,8.521988 3,9.382428 3,9.382428 Z" id="形状" fill="#FFFFFF"></path>
            </g>
        </g>
    </g>
</svg>