<?xml version="1.0" encoding="UTF-8"?>
<svg width="32px" height="32px" viewBox="0 0 32 32" version="1.1" xmlns="http://www.w3.org/2000/svg" xmlns:xlink="http://www.w3.org/1999/xlink">
    <title>编组 3</title>
    <g id="3-购物车" stroke="none" stroke-width="1" fill="none" fill-rule="evenodd">
        <g id="3-2-1商品-详情" transform="translate(-287.000000, -50.000000)">
            <g id="编组-3" transform="translate(287.000000, 50.000000)">
                <circle id="椭圆形" fill-opacity="0.45" fill="#000000" fill-rule="nonzero" cx="16" cy="16" r="16"></circle>
                <path d="M9.044,8.3007 C8.699,7.0701 7.624,6.25 6.39,6.25 L6,6.25 L5.898,6.2568 C5.532,6.3065 5.25,6.6203 5.25,7 C5.25,7.4142 5.586,7.75 6,7.75 L6.39,7.75 L6.515,7.7562 C7.048,7.8093 7.495,8.2001 7.611,8.7331 L8.957,19.4514 L8.994,19.625 C9.301,20.8804 10.398,21.75 11.669,21.75 L21.472,21.75 L21.648,21.7444 C22.814,21.6701 23.815,20.863 24.126,19.7236 L24.146,19.6228 L25.049,12.658 L25.077,12.5454 C25.113,12.366 25.131,12.1833 25.131,12 L25.126,11.8325 C25.04,10.3917 23.844,9.25 22.381,9.25 L9.184,9.25 L9.088,8.4792 L9.044,8.3007 Z M11.541,20.2435 C10.993,20.1875 10.54,19.7755 10.439,19.2236 L9.373,10.75 L22.382,10.75 L22.509,10.7565 C23.14,10.8205 23.632,11.3528 23.632,12 C23.632,12.1111 23.617,12.2217 23.587,12.3289 L23.567,12.4296 L22.667,19.363 L22.638,19.4513 C22.454,19.9285 21.993,20.25 21.472,20.25 L11.669,20.25 L11.541,20.2435 Z M12,24.5 C12,25.3284 11.328,26 10.5,26 C9.672,26 9,25.3284 9,24.5 C9,23.6716 9.672,23 10.5,23 C11.328,23 12,23.6716 12,24.5 Z M22.5,26 C23.328,26 24,25.3284 24,24.5 C24,23.6716 23.328,23 22.5,23 C21.672,23 21,23.6716 21,24.5 C21,25.3284 21.672,26 22.5,26 Z" id="形状" fill="#FFFFFF"></path>
            </g>
        </g>
    </g>
</svg>