<?xml version="1.0" encoding="UTF-8"?>
<svg width="110px" height="18px" viewBox="0 0 110 18" version="1.1" xmlns="http://www.w3.org/2000/svg" xmlns:xlink="http://www.w3.org/1999/xlink">
    <title>编组 2备份</title>
    <defs>
        <linearGradient x1="100%" y1="50%" x2="0%" y2="50%" id="linearGradient-1">
            <stop stop-color="#3EB5AE" offset="0%"></stop>
            <stop stop-color="#70CEB6" offset="100%"></stop>
        </linearGradient>
    </defs>
    <g id="3-购物车" stroke="none" stroke-width="1" fill="none" fill-rule="evenodd">
        <g id="3-1-1购物车-ios" transform="translate(-229.000000, -143.000000)">
            <g id="编组-12" transform="translate(229.000000, 143.000000)">
                <rect id="矩形" stroke="#42B7AE" x="0.5" y="0.5" width="109" height="17" rx="4"></rect>
                <path d="M0,4 C0,1.79086 1.79086,0 4,0 L18,0 L18,18 L4,18 C1.79086,18 0,16.2091 0,14 L0,4 Z" id="路径" fill="url(#linearGradient-1)"></path>
                <g id="编组-11" transform="translate(3.000000, 3.000000)" fill="#FFFFFF" fill-rule="nonzero">
                    <polygon id="路径" points="6.65 3.15 6.65 10.85 5.25 10.85 5.25 3.15"></polygon>
                    <path d="M5.95,-5.32907052e-15 C4.79020203,-5.32907052e-15 3.85,0.940202025 3.85,2.1 C3.85,3.25979797 4.79020203,4.2 5.95,4.2 C7.10979797,4.2 8.05,3.25979797 8.05,2.1 C8.05,0.940202025 7.10979797,-5.32907052e-15 5.95,-5.32907052e-15 Z M5.95,1.4 C6.33659932,1.4 6.65,1.71340068 6.65,2.1 C6.65,2.48659932 6.33659932,2.8 5.95,2.8 C5.56340068,2.8 5.25,2.48659932 5.25,2.1 C5.25,1.71340068 5.56340068,1.4 5.95,1.4 Z" id="椭圆形"></path>
                    <path d="M10.2456025,7.69686601 L11.4543975,8.40313399 C10.3256366,10.3350362 8.24358415,11.55 5.95,11.55 C3.72809035,11.55 1.70469823,10.4097849 0.554194005,8.58213421 L0.44560246,8.40313399 L1.65439754,7.69686601 C2.53405522,9.20242185 4.15789568,10.15 5.95,10.15 C7.67810059,10.15 9.24974156,9.26889736 10.148532,7.8560227 L10.2456025,7.69686601 Z" id="路径"></path>
                    <polygon id="路径" points="-6.66133815e-16 9.1686 0.1624 6.65 2.4248 7.7686"></polygon>
                    <polygon id="路径" points="11.9 9.1686 11.7376 6.65 9.4752 7.7686"></polygon>
                    <path d="M8.75,4.9 C9.13659932,4.9 9.45,5.21340068 9.45,5.6 C9.45,5.95898509 9.17977187,6.25485501 8.83163479,6.29529059 L8.75,6.3 L3.15,6.3 C2.76340068,6.3 2.45,5.98659932 2.45,5.6 C2.45,5.24101491 2.72022813,4.94514499 3.06836521,4.90470941 L3.15,4.9 L8.75,4.9 Z" id="路径"></path>
                </g>
            </g>
        </g>
    </g>
</svg>