<?xml version="1.0" encoding="UTF-8"?>
<svg width="110px" height="18px" viewBox="0 0 110 18" version="1.1" xmlns="http://www.w3.org/2000/svg" xmlns:xlink="http://www.w3.org/1999/xlink">
    <title>编组 2备份 2</title>
    <defs>
        <linearGradient x1="100%" y1="50%" x2="0%" y2="50%" id="linearGradient-1">
            <stop stop-color="#3EB5AE" offset="0%"></stop>
            <stop stop-color="#70CEB6" offset="100%"></stop>
        </linearGradient>
    </defs>
    <g id="3-购物车" stroke="none" stroke-width="1" fill="none" fill-rule="evenodd">
        <g id="3-1-1购物车-ios" transform="translate(-228.000000, -167.000000)">
            <g id="编组-12" transform="translate(228.000000, 167.000000)">
                <rect id="矩形" stroke="#42B7AE" x="0.5" y="0.5" width="109" height="17" rx="4"></rect>
                <path d="M0,4 C0,1.79086 1.79086,0 4,0 L18,0 L18,18 L4,18 C1.79086,18 0,16.2091 0,14 L0,4 Z" id="路径" fill="url(#linearGradient-1)"></path>
                <path d="M3.23148148,12.5561343 L3.79571759,12.5561343 C3.79571759,13.3851273 4.46990741,14.0593171 5.29890046,14.0593171 C6.12789352,14.0593171 6.80208333,13.3851273 6.80208333,12.5561343 L9.8677662,12.5561343 C9.99508102,12.5561343 10.0992477,12.4519676 10.0992477,12.3246528 L10.0992477,4.23148148 C10.0992477,4.10416667 9.99508102,4 9.8677662,4 L3.23148148,4 C3.10416667,4 3,4.10416667 3,4.23148148 L3,12.3246528 C3,12.4519676 3.10416667,12.5561343 3.23148148,12.5561343 L3.23148148,12.5561343 Z M5.2974537,13.4010417 C4.83159722,13.4010417 4.4525463,13.0219907 4.4525463,12.5561343 C4.4525463,12.0902778 4.83159722,11.7112269 5.2974537,11.7112269 C5.76331019,11.7112269 6.14236524,12.0902778 6.14236524,12.5561343 C6.14380787,13.0219907 5.76475694,13.4010417 5.2974537,13.4010417 Z M14.9212963,7.75578704 L13.7913773,6.60850694 C13.7479745,6.56365741 13.6886574,6.5390625 13.6264468,6.5390625 L10.8660301,6.5390625 C10.7387153,6.5390625 10.6345486,6.64322917 10.6345486,6.77054398 L10.6345486,12.2841435 C10.6345486,12.431713 10.7488426,12.5561343 10.9181134,12.5561343 L11.2624421,12.5561343 C11.2624421,13.3851273 11.9366319,14.0593171 12.765625,14.0593171 C13.5946181,14.0593171 14.2688079,13.3851273 14.2688079,12.5561343 L14.7578125,12.5561343 C14.8851273,12.5561343 14.989294,12.4519676 14.989294,12.3246528 L14.989294,7.91927083 C14.9878472,7.85850694 14.9646991,7.79918981 14.9212963,7.75578704 L14.9212963,7.75578704 Z M11.6762153,7.37094907 L13.2864583,7.37094907 C13.348669,7.37094907 13.4079861,7.39554398 13.4513889,7.44039352 L14.1111111,8.11024306 C14.1530671,8.15364583 14.177662,8.2115162 14.177662,8.27228009 L14.177662,9.703125 C14.177662,9.83043981 14.0734954,9.93460648 13.9461806,9.93460648 L11.6762153,9.93460648 C11.5489005,9.93460648 11.4447338,9.83043981 11.4447338,9.703125 L11.4447338,7.60243056 C11.4447338,7.47511574 11.5489005,7.37094907 11.6762153,7.37094907 Z M12.765625,13.4010417 C12.2997685,13.4010417 11.9207176,13.0219907 11.9207176,12.5561343 C11.9207176,12.0902778 12.2997685,11.7112269 12.765625,11.7112269 C13.2314815,11.7112269 13.6105324,12.0902778 13.6105324,12.5561343 C13.6105324,13.0219907 13.2314815,13.4010417 12.765625,13.4010417 Z" id="形状" fill="#FFFFFF" fill-rule="nonzero"></path>
            </g>
        </g>
    </g>
</svg>