<?xml version="1.0" encoding="UTF-8"?>
<svg width="24px" height="24px" viewBox="0 0 24 24" version="1.1" xmlns="http://www.w3.org/2000/svg" xmlns:xlink="http://www.w3.org/1999/xlink">
    <title>icon/choose/a</title>
    <defs>
        <linearGradient x1="100%" y1="50%" x2="0%" y2="50%" id="linearGradient-1">
            <stop stop-color="#3EB5AE" offset="0%"></stop>
            <stop stop-color="#70CEB6" offset="100%"></stop>
        </linearGradient>
    </defs>
    <g id="4-我的" stroke="none" stroke-width="1" fill="none" fill-rule="evenodd">
        <g id="4-8-9设置-收货地址" transform="translate(-157.000000, -196.000000)">
            <g id="icon/choose/a" transform="translate(157.000000, 196.000000)">
                <rect id="矩形" stroke="#979797" fill="#D8D8D8" opacity="0" x="0.5" y="0.5" width="23" height="23"></rect>
                <g transform="translate(3.000000, 3.000000)">
                    <circle id="椭圆形备份" fill="url(#linearGradient-1)" cx="9" cy="9" r="9"></circle>
                    <path d="M11.856853,6 L11.0150433,6 C10.8319594,6 10.6578496,6.0924475 10.5501446,6.25095067 L7.72852294,10.3644925 L6.450538,8.50019091 C6.34283306,8.34358133 6.17052446,8.24922333 5.9856393,8.24922333 L5.1438296,8.24922333 C5.0271506,8.24922333 4.95894444,8.38885828 5.0271506,8.48886322 L7.26364032,11.7495143 C7.49159459,12.0834952 7.96365004,12.0834952 8.1916204,11.7495143 L11.9717308,6.23963988 C12.0417382,6.13963495 11.973532,6 11.856853,6 Z" id="路径" fill="#FFFFFF" fill-rule="nonzero"></path>
                </g>
            </g>
        </g>
    </g>
</svg>