<?xml version="1.0" encoding="UTF-8"?>
<svg width="24px" height="24px" viewBox="0 0 24 24" version="1.1" xmlns="http://www.w3.org/2000/svg" xmlns:xlink="http://www.w3.org/1999/xlink">
    <title>编组 3</title>
    <g id="4-我的" stroke="none" stroke-width="1" fill="none" fill-rule="evenodd">
        <g id="4-5-22我的订单-已取消" transform="translate(-329.000000, -199.000000)">
            <g id="编组-2" transform="translate(-1.000000, 178.000000)">
                <g id="编组-3" transform="translate(330.000000, 21.000000)">
                    <rect id="矩形" fill="#F8F8F8" fill-rule="nonzero" x="0" y="0" width="24" height="24" rx="8"></rect>
                    <path d="M19.033,9 C19.291,9 19.5,9.224 19.5,9.5 L19.5,17.682 C19.5,19.006 18.412,20 17.167,20 L7.833,20 C6.588,20 5.5,19.006 5.5,17.682 L5.5,9.5 C5.5,9.224 5.709,9 5.967,9 C6.224,9 6.433,9.224 6.433,9.5 L6.433,17.682 C6.433,18.366 7.017,19 7.833,19 L17.167,19 C17.983,19 18.567,18.366 18.567,17.682 L18.567,9.5 C18.567,9.224 18.776,9 19.033,9 Z M10,11 C10.276,11 10.5,11.224 10.5,11.5 L10.5,15.5 C10.5,15.776 10.276,16 10,16 C9.724,16 9.5,15.776 9.5,15.5 L9.5,11.5 C9.5,11.224 9.724,11 10,11 Z M15,11 C15.276,11 15.5,11.224 15.5,11.5 L15.5,15.5 C15.5,15.776 15.276,16 15,16 C14.724,16 14.5,15.776 14.5,15.5 L14.5,11.5 C14.5,11.224 14.724,11 15,11 Z M20,7 C20.276,7 20.5,7.224 20.5,7.5 C20.5,7.776 20.276,8 20,8 L5,8 C4.724,8 4.5,7.776 4.5,7.5 C4.5,7.224 4.724,7 5,7 L20,7 Z M14.786,4 C15.732,4 16.5,4.672 16.5,5.5 C16.5,5.776 16.244,6 15.929,6 C15.613,6 15.357,5.776 15.357,5.5 C15.357,5.224 15.101,5 14.786,5 L10.214,5 C9.899,5 9.643,5.224 9.643,5.5 C9.643,5.776 9.387,6 9.071,6 C8.756,6 8.5,5.776 8.5,5.5 C8.5,4.672 9.268,4 10.214,4 L14.786,4 Z" id="形状结合" fill="#666666"></path>
                </g>
            </g>
        </g>
    </g>
</svg>