<?xml version="1.0" encoding="UTF-8"?>
<svg width="18px" height="18px" viewBox="0 0 18 18" version="1.1" xmlns="http://www.w3.org/2000/svg" xmlns:xlink="http://www.w3.org/1999/xlink">
    <title>img/fails</title>
    <g id="4-我的" stroke="none" stroke-width="1" fill="none" fill-rule="evenodd">
        <g id="4-6-4售后详情-仅退款" transform="translate(-30.000000, -472.000000)" fill="#42B7AE">
            <g id="img/fails" transform="translate(30.000000, 472.000000)">
                <path d="M0,8.75 C0,3.92325581 3.92325581,0 8.75,0 C13.5767442,0 17.5,3.92325581 17.5,8.75 C17.5,13.5767442 13.5767442,17.5 8.75,17.5 C3.92325581,17.5 0,13.5767442 0,8.75 Z M11.8430233,11.8391163 C12.0872093,11.5949302 12.0872093,11.1980465 11.8430233,10.9538605 L9.63525581,8.74413953 L11.8453023,6.53409302 C12.0894884,6.28990698 12.0894884,5.89302326 11.8453023,5.64883721 C11.6011163,5.40465116 11.2042326,5.40465116 10.9600465,5.64883721 L8.75,7.85888372 L6.54223256,5.64883721 C6.29804651,5.40465116 5.90116279,5.40465116 5.65697674,5.64883721 C5.4127907,5.89302326 5.4127907,6.28990698 5.65697674,6.53409302 L7.86702326,8.74186047 L5.65502326,10.9538605 C5.41083721,11.1980465 5.41083721,11.5929767 5.65502326,11.8371628 C5.8992093,12.0813488 6.29413953,12.0813488 6.53832558,11.8371628 L8.75,9.62711628 L10.9600465,11.8391163 C11.2042326,12.0833023 11.5988372,12.0833023 11.8430233,11.8391163 Z" id="形状"></path>
            </g>
        </g>
    </g>
</svg>