<?xml version="1.0" encoding="UTF-8"?>
<svg width="24px" height="24px" viewBox="0 0 24 24" version="1.1" xmlns="http://www.w3.org/2000/svg" xmlns:xlink="http://www.w3.org/1999/xlink">
    <title>编组 5</title>
    <g id="4-我的" stroke="none" stroke-width="1" fill="none" fill-rule="evenodd">
        <g id="4-7-7我的-评价-评价详情" transform="translate(-333.000000, -780.000000)">
            <g id="编组-5" transform="translate(333.000000, 780.000000)">
                <path d="M10.683,7.85 L11.224,8.111 L10.683,7.85 Z M15.337,10.182 L14.766,9.998 C14.705,10.186 14.741,10.391 14.86,10.547 C14.98,10.704 15.169,10.791 15.366,10.782 L15.337,10.182 Z M10.326,20 C9.994,20 9.726,20.269 9.726,20.6 C9.726,20.931 9.994,21.2 10.326,21.2 L10.326,20 Z M7.85,20.6 L7.85,21.2 L8.45,21.2 L8.45,20.6 L7.85,20.6 Z M7.85,9.867 C8.407,9.867 9.056,9.839 9.661,9.603 C10.296,9.356 10.846,8.895 11.224,8.111 L10.143,7.589 C9.897,8.1 9.578,8.348 9.226,8.485 C8.844,8.634 8.389,8.667 7.85,8.667 L7.85,9.867 Z M11.224,8.111 C11.45,7.642 11.594,7.12 11.717,6.645 C11.845,6.15 11.949,5.713 12.096,5.322 C12.242,4.936 12.405,4.664 12.609,4.487 C12.798,4.323 13.067,4.2 13.517,4.2 L13.517,3 C12.818,3 12.257,3.203 11.823,3.581 C11.403,3.945 11.15,4.428 10.973,4.9 C10.798,5.367 10.673,5.889 10.555,6.344 C10.432,6.82 10.312,7.239 10.143,7.589 L11.224,8.111 Z M13.517,4.2 C14.082,4.2 14.445,4.378 14.695,4.638 C14.959,4.914 15.15,5.338 15.247,5.909 C15.442,7.061 15.217,8.602 14.766,9.998 L15.908,10.367 C16.388,8.878 16.67,7.127 16.43,5.709 C16.309,4.996 16.048,4.315 15.56,3.807 C15.057,3.284 14.368,3 13.517,3 L13.517,4.2 Z M15.366,10.782 C16.923,10.707 18.057,11.085 18.801,11.798 C19.546,12.511 20,13.653 20,15.311 L21.2,15.311 C21.2,13.443 20.686,11.941 19.631,10.931 C18.576,9.921 17.078,9.498 15.308,9.583 L15.366,10.782 Z M20,15.311 C20,16.896 19.371,18.049 18.446,18.816 C17.508,19.595 16.233,20 14.933,20 L14.933,21.2 C16.467,21.2 18.026,20.724 19.212,19.74 C20.413,18.744 21.2,17.252 21.2,15.311 L20,15.311 Z M14.933,20 L10.326,20 L10.326,21.2 L14.933,21.2 L14.933,20 Z M6.433,9.867 L7.85,9.867 L7.85,8.667 L6.433,8.667 L6.433,9.867 Z M7.25,9.267 L7.25,20.6 L8.45,20.6 L8.45,9.267 L7.25,9.267 Z M7.85,20 L6.433,20 L6.433,21.2 L7.85,21.2 L7.85,20 Z M4.2,17.767 L4.2,12.1 L3,12.1 L3,17.767 L4.2,17.767 Z M6.433,20 C5.2,20 4.2,19 4.2,17.767 L3,17.767 C3,19.663 4.537,21.2 6.433,21.2 L6.433,20 Z M6.433,8.667 C4.537,8.667 3,10.204 3,12.1 L4.2,12.1 C4.2,10.867 5.2,9.867 6.433,9.867 L6.433,8.667 Z" id="形状" fill="#000000" fill-rule="nonzero" opacity="0.85"></path>
                <rect id="矩形" stroke="#979797" fill="#D8D8D8" opacity="0" x="0.5" y="0.5" width="23" height="23"></rect>
            </g>
        </g>
    </g>
</svg>