<?xml version="1.0" encoding="UTF-8"?>
<svg width="24px" height="24px" viewBox="0 0 24 24" version="1.1" xmlns="http://www.w3.org/2000/svg" xmlns:xlink="http://www.w3.org/1999/xlink">
    <title>img/飞机</title>
    <defs>
        <linearGradient x1="100%" y1="50%" x2="0%" y2="50%" id="linearGradient-1">
            <stop stop-color="#3EB5AE" offset="0%"></stop>
            <stop stop-color="#70CEB6" offset="100%"></stop>
        </linearGradient>
    </defs>
    <g id="3-购物车" stroke="none" stroke-width="1" fill="none" fill-rule="evenodd">
        <g id="3-2-1商品-详情" transform="translate(-51.000000, -710.000000)" fill-rule="nonzero">
            <g id="img/飞机" transform="translate(51.000000, 710.000000)">
                <circle id="椭圆形" fill="url(#linearGradient-1)" cx="12" cy="12" r="12"></circle>
                <path d="M18.1888,10.536 L15.6853,10.536 L11.5063,5.371 C11.3165,5.136 11.0308,5 10.7289,5 L9.86,5 C9.5112,5 9.2696,5.348 9.3916,5.675 L11.2062,10.536 L6.9861,10.536 L5.4945,9.348 C5.3175,9.207 5.0979,9.131 4.8717,9.131 L4.6399,9.131 C4.3148,9.131 4.0761,9.436 4.1548,9.752 L4.8512,12.546 C4.9623,12.991 5.3624,13.304 5.8215,13.304 L11.2062,13.304 L9.3916,18.165 C9.2696,18.492 9.5112,18.84 9.86,18.84 L10.7289,18.84 C11.0308,18.84 11.3165,18.704 11.5063,18.469 L15.6853,13.304 L19.1311,13.304 C19.4278,13.304 19.8203,13.304 19.8203,12.612 C19.8203,11.693 19.1064,10.536 18.1888,10.536 Z" id="路径" fill="#FFFFFF"></path>
            </g>
        </g>
    </g>
</svg>