<?xml version="1.0" encoding="UTF-8"?>
<svg width="16px" height="16px" viewBox="0 0 16 16" version="1.1" xmlns="http://www.w3.org/2000/svg" xmlns:xlink="http://www.w3.org/1999/xlink">
    <title>形状</title>
    <g id="3-购物车" stroke="none" stroke-width="1" fill="none" fill-rule="evenodd">
        <g id="3-2-1商品-详情" transform="translate(-20.000000, -1080.000000)" fill="#42B7AE" fill-rule="nonzero">
            <path d="M32.8,1092.99 C33.0133,1092.78 33.3333,1092.78 33.5467,1092.99 C33.76,1093.21 33.76,1093.53 33.5467,1093.74 C32.0533,1095.25 30.0267,1096 28,1096 C23.6267,1096 20,1092.35 20,1087.95 C20,1083.54 23.6267,1080 28,1080 C32.3733,1080 36,1083.65 36,1088.05 C36,1088.81 35.8933,1089.66 35.68,1090.31 C35.5733,1090.63 35.2533,1090.74 35.04,1090.63 C34.72,1090.52 34.6133,1090.2 34.72,1089.99 C34.9333,1089.34 35.04,1088.7 35.04,1087.95 C35.04,1084.08 31.9467,1080.97 28.1067,1080.97 C24.2667,1080.97 21.0667,1084.19 21.0667,1088.05 C21.0667,1091.92 24.16,1095.03 28,1095.03 C29.8133,1095.03 31.52,1094.28 32.8,1092.99 Z M26.8267,1089.56 L30.9867,1085.37 C31.2,1085.15 31.52,1085.15 31.7333,1085.37 C31.9467,1085.58 31.9467,1085.91 31.7333,1086.12 L27.2533,1090.63 C27.04,1090.85 26.72,1090.85 26.5067,1090.63 L24.2667,1088.38 C24.0533,1088.16 24.0533,1087.84 24.2667,1087.62 C24.48,1087.41 24.8,1087.41 25.0133,1087.62 L26.8267,1089.56 Z" id="形状"></path>
        </g>
    </g>
</svg>