<?xml version="1.0" encoding="UTF-8"?>
<svg width="24px" height="24px" viewBox="0 0 24 24" version="1.1" xmlns="http://www.w3.org/2000/svg" xmlns:xlink="http://www.w3.org/1999/xlink">
    <title>编组 11</title>
    <g id="3-购物车" stroke="none" stroke-width="1" fill="none" fill-rule="evenodd">
        <g id="3-2-1商品-详情" transform="translate(-175.000000, -710.000000)" fill-rule="nonzero">
            <g id="编组-11" transform="translate(175.000000, 710.000000)">
                <circle id="椭圆形" fill="#DDDDDD" cx="12" cy="12" r="12"></circle>
                <polygon id="路径" fill="#FFFFFF" points="13 8 13 19 11 19 11 8"></polygon>
                <path d="M12,3.5 C10.3431458,3.5 9,4.84314575 9,6.5 C9,8.15685425 10.3431458,9.5 12,9.5 C13.6568542,9.5 15,8.15685425 15,6.5 C15,4.84314575 13.6568542,3.5 12,3.5 Z M12,5.5 C12.5522847,5.5 13,5.94771525 13,6.5 C13,7.05228475 12.5522847,7.5 12,7.5 C11.4477153,7.5 11,7.05228475 11,6.5 C11,5.94771525 11.4477153,5.5 12,5.5 Z" id="椭圆形" fill="#FFFFFF"></path>
                <path d="M18.1365749,14.4955229 L19.8634251,15.5044771 C18.2509095,18.2643374 15.2765488,20 12,20 C8.82584336,20 5.93528318,18.3711213 4.29170572,15.7601917 L4.13657494,15.5044771 L5.86342506,14.4955229 C7.12007888,16.6463169 9.43985098,18 12,18 C14.4687151,18 16.7139165,16.7412819 17.9979029,14.7228896 L18.1365749,14.4955229 Z" id="路径" fill="#FFFFFF"></path>
                <polygon id="路径" fill="#FFFFFF" points="3.5 16.598 3.732 13 6.964 14.598"></polygon>
                <polygon id="路径" fill="#FFFFFF" points="20.5 16.598 20.268 13 17.036 14.598"></polygon>
                <path d="M16,10.5 C16.5522847,10.5 17,10.9477153 17,11.5 C17,12.0128358 16.6139598,12.4355072 16.1166211,12.4932723 L16,12.5 L8,12.5 C7.44771525,12.5 7,12.0522847 7,11.5 C7,10.9871642 7.38604019,10.5644928 7.88337887,10.5067277 L8,10.5 L16,10.5 Z" id="路径" fill="#FFFFFF"></path>
            </g>
        </g>
    </g>
</svg>