<?xml version="1.0" encoding="UTF-8"?>
<svg width="24px" height="24px" viewBox="0 0 24 24" version="1.1" xmlns="http://www.w3.org/2000/svg" xmlns:xlink="http://www.w3.org/1999/xlink">
    <title>编组 11备份 2</title>
    <defs>
        <linearGradient x1="100%" y1="50%" x2="0%" y2="50%" id="linearGradient-1">
            <stop stop-color="#3EB5AE" offset="0%"></stop>
            <stop stop-color="#70CEB6" offset="100%"></stop>
        </linearGradient>
    </defs>
    <g id="3-购物车" stroke="none" stroke-width="1" fill="none" fill-rule="evenodd">
        <g id="3-2-1商品-详情" transform="translate(-115.000000, -725.000000)" fill-rule="nonzero">
            <g id="编组-11备份-2" transform="translate(115.000000, 725.000000)">
                <circle id="椭圆形" fill="url(#linearGradient-1)" cx="12" cy="12" r="12"></circle>
                <path d="M5.27030288,16.2068172 L5.92916616,16.2068172 C5.92916616,17.1957428 6.71642331,18 7.68444552,18 C8.65246772,18 9.43972487,17.1957428 9.43972487,16.2068172 L13.0195487,16.2068172 C13.1682153,16.2068172 13.2898516,16.0825543 13.2898516,15.9306774 L13.2898516,6.2761398 C13.2898516,6.12426291 13.1682153,6 13.0195487,6 L5.27030288,6 C5.1216363,6 5,6.12426291 5,6.2761398 L5,15.9306774 C5,16.0825543 5.1216363,16.2068172 5.27030288,16.2068172 L5.27030288,16.2068172 Z M7.68275612,17.2147275 C7.13877157,17.2147275 6.6961506,16.7625485 6.6961506,16.2068172 C6.6961506,15.6510859 7.13877157,15.1989069 7.68275612,15.1989069 C8.22674068,15.1989069 8.66936647,15.6510859 8.66936647,16.2068172 C8.67105104,16.7625485 8.22843007,17.2147275 7.68275612,17.2147275 Z M18.9205985,10.4803682 L17.6011826,9.11175032 C17.5505008,9.05824824 17.4812357,9.02890838 17.4085918,9.02890838 L14.1852299,9.02890838 C14.0365633,9.02890838 13.914927,9.15317129 13.914927,9.30504818 L13.914927,15.8823529 C13.914927,16.0583921 14.048389,16.2068172 14.246048,16.2068172 L14.6481236,16.2068172 C14.6481236,17.1957428 15.4353807,18 16.4034029,18 C17.3714251,18 18.1586823,17.1957428 18.1586823,16.2068172 L18.7296971,16.2068172 C18.8783637,16.2068172 19,16.0825543 19,15.9306774 L19,10.6753919 C18.9983106,10.6029052 18.9712803,10.5321444 18.9205985,10.4803682 L18.9205985,10.4803682 Z M15.13129,10.0212858 L17.0115844,10.0212858 C17.0842283,10.0212858 17.1534934,10.0506256 17.2041752,10.1041277 L17.9745384,10.9032072 C18.0235308,10.9549835 18.0522505,11.0240184 18.0522505,11.0965051 L18.0522505,12.8033942 C18.0522505,12.9552711 17.9306142,13.079534 17.7819476,13.079534 L15.13129,13.079534 C14.9826234,13.079534 14.8609871,12.9552711 14.8609871,12.8033942 L14.8609871,10.2974256 C14.8609871,10.1455487 14.9826234,10.0212858 15.13129,10.0212858 Z M16.4034029,17.2147275 C15.8594184,17.2147275 15.4167974,16.7625485 15.4167974,16.2068172 C15.4167974,15.6510859 15.8594184,15.1989069 16.4034029,15.1989069 C16.9473875,15.1989069 17.3900084,15.6510859 17.3900084,16.2068172 C17.3900084,16.7625485 16.9473875,17.2147275 16.4034029,17.2147275 Z" id="形状" fill="#FFFFFF"></path>
            </g>
        </g>
    </g>
</svg>